<svg width="16" height="16" viewBox="0 0 16 16" fill="none" xmlns="http://www.w3.org/2000/svg">
<path fill-rule="evenodd" clip-rule="evenodd" d="M10.7623 7.32684C11.2168 7.41544 11.6879 7.51804 12.1852 7.63928C13.9936 8.07531 15.3214 8.46004 15.1405 10.1831C15.0715 10.8593 13.9341 12.1534 13.0966 12.8902C12.535 13.3845 12.3352 14.8232 11.6975 15.3548C10.503 16.3481 9.73204 16.024 8.53756 15.5157C7.1551 14.9304 6.96713 13.5734 6.67208 12.2607C6.40558 11.0762 6.4032 9.94532 6.35561 9.3554C6.35085 9.29245 6.34371 9.19918 6.33658 9.08493C6.16288 9.72147 6.07722 10.2741 5.95587 10.9433C5.66081 12.5638 5.42287 14.5457 4.19746 14.2566C3.71443 14.1423 2.97442 13.6107 2.45333 13.5641C2.07975 13.5314 1.62766 13.5221 1.28502 13.4242C-1.37996 12.6687 0.709194 9.71215 2.09641 8.78414C3.3361 7.95406 4.58769 7.44575 5.86545 6.8232C5.53946 6.83719 5.21586 6.86983 4.91367 6.88848C4.26646 6.92812 3.58832 7.19393 2.9768 7.16595C2.04882 7.12165 1.23981 6.8675 1.77281 5.82057C2.06786 5.23998 2.51281 4.61043 3.348 4.03917C3.88337 3.6731 4.12369 2.49793 5.12782 2.40932C5.79168 2.35103 6.16526 2.87333 6.44127 3.33034C6.73632 3.81999 6.88385 4.43789 7.00758 4.7923C7.08134 5.00215 7.34784 5.80658 7.41684 6.32655C7.4216 6.35453 7.4216 6.38251 7.42398 6.40816C7.54771 6.04908 7.75472 5.45217 7.90225 5.04645C8.1164 4.45421 8.36148 3.63579 8.58991 3.0039C8.79692 2.42098 9.03011 0.112619 10.4982 0.0030299C11.2596 -0.0529304 11.5904 0.683881 12.6373 0.758494C14.0341 0.858757 15.9686 1.20851 15.9995 2.69379C16.0209 3.75004 15.3642 4.69437 14.0317 5.48714C12.8372 6.20064 12.0996 6.37784 10.9812 6.54806C10.5173 6.61801 10.0723 6.69029 9.64638 6.75091L10.76 7.32684H10.7623Z" fill="#516F3F"/>
</svg>
