<svg width="48" height="48" viewBox="0 0 48 48" fill="none" xmlns="http://www.w3.org/2000/svg">
<path fill-rule="evenodd" clip-rule="evenodd" d="M31.5964 22.1067C32.8462 22.3559 34.1418 22.6445 35.5094 22.9855C40.4825 24.2118 44.1337 25.2938 43.6364 30.1401C43.4467 32.0419 40.3189 35.6815 38.0156 37.7538C36.4713 39.144 35.9217 43.1902 34.168 44.6854C30.8832 47.4791 28.7631 46.5675 25.4783 45.1379C21.6765 43.4919 21.1596 39.6752 20.3482 35.9831C19.6153 32.6518 19.6088 29.4712 19.4779 27.8121C19.4648 27.635 19.4452 27.3727 19.4256 27.0514C18.9479 28.8416 18.7123 30.3959 18.3786 32.278C17.5672 36.8357 16.9129 42.4098 13.543 41.5967C12.2147 41.2753 10.1797 39.7801 8.74665 39.649C7.71932 39.5572 6.47606 39.5309 5.5338 39.2555C-1.79488 37.1308 3.95028 28.8154 7.76513 26.2054C11.1743 23.8708 14.6161 22.4412 18.13 20.6902C17.2335 20.7296 16.3436 20.8214 15.5126 20.8739C13.7328 20.9853 11.8679 21.7329 10.1862 21.6542C7.63426 21.5296 5.40948 20.8148 6.87521 17.8704C7.6866 16.2375 8.91023 14.4668 11.207 12.8602C12.6793 11.8306 13.3402 8.52542 16.1015 8.27622C17.9271 8.11228 18.9545 9.58124 19.7135 10.8666C20.5249 12.2437 20.9306 13.9816 21.2708 14.9783C21.4737 15.5686 22.2066 17.831 22.3963 19.2934C22.4094 19.3721 22.4094 19.4508 22.4159 19.5229C22.7562 18.513 23.3255 16.8342 23.7312 15.6932C24.3201 14.0275 24.9941 11.7257 25.6222 9.94848C26.1915 8.30901 26.8328 1.81674 30.8701 1.50852C32.964 1.35113 33.8736 3.42341 36.7527 3.63327C40.5937 3.91525 45.9135 4.89893 45.9986 9.07628C46.0575 12.047 44.2515 14.7029 40.5872 16.9326C37.3023 18.9393 35.2739 19.4377 32.1984 19.9164C30.9225 20.1131 29.6988 20.3164 28.5275 20.4869L31.5899 22.1067H31.5964Z" fill="#516F3F"/>
</svg>
