<svg width="24" height="24" viewBox="0 0 24 24" fill="none" xmlns="http://www.w3.org/2000/svg">
<path fill-rule="evenodd" clip-rule="evenodd" d="M15.7442 17.1706C12.18 20.0253 6.96279 19.8006 3.6588 16.4966C0.113735 12.9515 0.113735 7.20386 3.6588 3.6588C7.20386 0.113734 12.9515 0.113735 16.4966 3.6588C19.8006 6.96279 20.0253 12.18 17.1706 15.7442L22.7046 21.2782C23.0985 21.672 23.0985 22.3107 22.7046 22.7046C22.3107 23.0985 21.672 23.0985 21.2782 22.7046L15.7442 17.1706ZM5.08522 15.0702C2.32795 12.3129 2.32795 7.84249 5.08522 5.08522C7.84249 2.32795 12.3129 2.32795 15.0702 5.08522C17.8254 7.84047 17.8274 12.3063 15.0762 15.0641C15.0742 15.0661 15.0722 15.0681 15.0702 15.0701C15.0681 15.0722 15.0661 15.0742 15.0641 15.0762C12.3064 17.8275 7.84047 17.8254 5.08522 15.0702Z" fill="#2A3920"/>
</svg>
