<svg width="21" height="22" viewBox="0 0 21 22" fill="none" xmlns="http://www.w3.org/2000/svg">
<path fill-rule="evenodd" clip-rule="evenodd" d="M3.12808 2.06194C4.25603 0.937584 6.14724 1.252 6.94577 2.57864L6.95132 2.58787L8.79205 5.73351C9.33412 6.67912 9.19737 7.89473 8.38867 8.70086L8.08337 9.00519C9.16437 10.7007 10.8065 12.3782 12.4664 13.3842L12.7699 13.1153C13.5786 12.3269 14.7857 12.1973 15.7265 12.7331L15.7333 12.737L18.8482 14.5483C19.6194 14.9175 20.0253 15.6308 20.1084 16.3431C20.1914 17.0546 19.9637 17.827 19.4098 18.3791L18.3602 19.4254C17.2704 20.5117 15.4963 20.9924 13.9824 20.3065C11.9897 19.4921 9.00091 17.9555 6.27698 15.2402C3.54592 12.5178 2.00648 9.44557 1.19767 7.5662C0.50768 6.06168 0.983152 4.29763 2.06534 3.20856L3.10386 2.08707C3.11177 2.07854 3.11984 2.07016 3.12808 2.06194ZM4.37461 3.28575L3.33968 4.40336C3.33178 4.4119 3.3237 4.42028 3.31546 4.42849C2.66032 5.08155 2.44234 6.09317 2.79139 6.84703C2.79475 6.85429 2.79801 6.8616 2.80117 6.86895C3.56801 8.65254 5.00189 11.503 7.51398 14.0071C10.0306 16.5157 12.8056 17.9425 14.6615 18.6994C14.6734 18.7042 14.6852 18.7093 14.6969 18.7147C15.4532 19.0626 16.468 18.8454 17.1232 18.1923L18.1728 17.146C18.3187 17.0006 18.3971 16.7702 18.3707 16.5445C18.3461 16.3331 18.2413 16.1883 18.0795 16.115C18.0525 16.1027 18.0262 16.0892 18.0007 16.0743L14.8558 14.2457C14.5803 14.0903 14.2268 14.1289 13.9867 14.3683C13.9746 14.3804 13.9621 14.3921 13.9493 14.4034L13.1621 15.101C12.891 15.3412 12.4993 15.3897 12.1774 15.2229C9.81745 13.9996 7.51469 11.6001 6.21977 9.29506C6.02842 8.95445 6.08752 8.52856 6.36445 8.25251L7.15167 7.46779C7.39181 7.22841 7.43056 6.87611 7.27468 6.60143L5.44341 3.47208C5.19414 3.06324 4.64867 3.02594 4.37461 3.28575Z" fill="#2A3920"/>
<path fill-rule="evenodd" clip-rule="evenodd" d="M14.2235 7.2765C13.7848 6.83778 13.1071 6.68051 12.6279 6.84024C12.1292 7.00644 11.5903 6.73697 11.4241 6.23835C11.2579 5.73973 11.5274 5.20078 12.026 5.03458C13.2598 4.62331 14.6758 5.03704 15.5694 5.93064C16.463 6.82425 16.8767 8.24021 16.4654 9.47402C16.2992 9.97264 15.7603 10.2421 15.2616 10.0759C14.763 9.9097 14.4936 9.37075 14.6598 8.87213C14.8195 8.39294 14.6622 7.71523 14.2235 7.2765Z" fill="#2A3920"/>
<path fill-rule="evenodd" clip-rule="evenodd" d="M16.5807 4.91934C15.0283 3.36697 12.7717 2.82063 10.7498 3.365C10.2738 3.49315 9.78406 3.21117 9.65591 2.73519C9.52776 2.2592 9.80974 1.76946 10.2857 1.64131C12.905 0.93612 15.8251 1.63934 17.8429 3.65711C19.8607 5.67487 20.5639 8.59502 19.8587 11.2143C19.7305 11.6903 19.2408 11.9722 18.7648 11.8441C18.2888 11.7159 18.0069 11.2262 18.135 10.7502C18.6794 8.72828 18.133 6.47172 16.5807 4.91934Z" fill="#2A3920"/>
</svg>
