<svg width="24" height="24" viewBox="0 0 24 24" fill="none" xmlns="http://www.w3.org/2000/svg">
<path fill-rule="evenodd" clip-rule="evenodd" d="M24 12C24 11.4237 23.4801 10.9565 22.8387 10.9565H1.16129C0.519927 10.9565 0 11.4237 0 12C0 12.5763 0.519927 13.0435 1.16129 13.0435H22.8387C23.4801 13.0435 24 12.5763 24 12Z" fill="#2A3920"/>
<path fill-rule="evenodd" clip-rule="evenodd" d="M24 5.04348C24 4.46718 23.4801 4 22.8387 4H1.16129C0.519927 4 0 4.46718 0 5.04348C0 5.61978 0.519927 6.08696 1.16129 6.08696H22.8387C23.4801 6.08696 24 5.61978 24 5.04348Z" fill="#2A3920"/>
<path fill-rule="evenodd" clip-rule="evenodd" d="M24 18.9565C24 18.3802 23.4801 17.913 22.8387 17.913H1.16129C0.519927 17.913 0 18.3802 0 18.9565C0 19.5328 0.519927 20 1.16129 20H22.8387C23.4801 20 24 19.5328 24 18.9565Z" fill="#2A3920"/>
</svg>
