<svg width="24" height="24" viewBox="0 0 24 24" fill="none" xmlns="http://www.w3.org/2000/svg">
<path fill-rule="evenodd" clip-rule="evenodd" d="M5.61728 5C4.24604 5 3 6.22761 3 7.97241V16.0276C3 17.7724 4.24604 19 5.61728 19H18.4787C19.8543 19 21.0741 17.7764 20.9966 16.0731C20.9959 16.0579 20.9955 16.0428 20.9955 16.0276V7.97241C20.9955 6.22761 19.7495 5 18.3783 5H5.61728ZM1 7.97241C1 5.30343 2.96932 3 5.61728 3H18.3783C21.0262 3 22.9955 5.30343 22.9955 7.97241V16.0061C23.1061 18.7062 21.1146 21 18.4787 21H5.61728C2.96932 21 1 18.6966 1 16.0276V7.97241Z" fill="#516F3F"/>
<path fill-rule="evenodd" clip-rule="evenodd" d="M5.12993 7.50688C5.40223 7.02639 6.01249 6.85763 6.49298 7.12993L11.1718 9.78148C11.7134 10.0727 12.2864 10.0727 12.8281 9.78148L17.5069 7.12993C17.9874 6.85763 18.5976 7.02639 18.8699 7.50688C19.1422 7.98737 18.9735 8.59763 18.493 8.86993L13.8055 11.5264L13.7895 11.5353C12.6482 12.1548 11.3517 12.1548 10.2104 11.5353L10.1944 11.5264L5.50688 8.86993C5.02639 8.59763 4.85763 7.98737 5.12993 7.50688Z" fill="#516F3F"/>
</svg>
