<svg width="24" height="24" viewBox="0 0 24 24" fill="none" xmlns="http://www.w3.org/2000/svg">
<path fill-rule="evenodd" clip-rule="evenodd" d="M14.7231 15.7605C12.1309 17.8366 8.33657 17.6732 5.93367 15.2703C3.35544 12.692 3.35544 8.5119 5.93367 5.93367C8.5119 3.35544 12.692 3.35544 15.2703 5.93367C17.6732 8.33657 17.8366 12.1309 15.7605 14.7231L19.7851 18.7477C20.0716 19.0342 20.0716 19.4987 19.7851 19.7851C19.4987 20.0716 19.0342 20.0716 18.7477 19.7851L14.7231 15.7605ZM6.97107 14.2329C4.96578 12.2276 4.96578 8.97636 6.97107 6.97107C8.97635 4.96578 12.2276 4.96578 14.2329 6.97107C16.2367 8.97489 16.2381 12.2228 14.2373 14.2284C14.2358 14.2299 14.2343 14.2314 14.2328 14.2328C14.2314 14.2343 14.2299 14.2358 14.2284 14.2373C12.2228 16.2381 8.97488 16.2367 6.97107 14.2329Z" fill="#516F3F"/>
</svg>
